# xmcd
#
# Track frame offsets:
#	150
#	17614
#	38403
#	57868
#	75383
#	92294
#	113654
#	121236
#	136667
#	156414
#	160155
#	175329
#	195899
#	218554
#	233398
#	250432
#	264740
#	288034
#	309157
#	341112
#
# Disc length: 4722 seconds
#
# Revision: 3
# Processed by: cddbd v1.5.2PL0 Copyright (c) Steve Scherf et al.
# Submitted via: EasyCDDAExtractor 12.0.1.1
#
DISCID=f0127014
DTITLE=La Fouine - Mes Repères
DYEAR=2009
DGENRE=Hip-Hop FR
TTITLE0=Du Ferme
TTITLE1=Immortelles
TTITLE2=Tous les mêmes
TTITLE3=Rap Français
TTITLE4=Ca Fait Mal
TTITLE5=On Fait l'taf
TTITLE6=Interlude en Studio
TTITLE7=De l'Or
TTITLE8=Repartir à Zéro feat Soprano
TTITLE9=Interlude Salam
TTITLE10=Afrika
TTITLE11=Hamdoula Moi ça Va feat Canardo
TTITLE12=Rap Inconscient
TTITLE13=Chips
TTITLE14=Mes Repères
TTITLE15=Je Sais où ça Ramène
TTITLE16=La Mémoire dans la Peau
TTITLE17=Feu Rouge
TTITLE18=Ca Fait Mal "Remix" feat Sefyu et Soprano
TTITLE19=Opendisc
EXTD=YEAR: 2009
EXTT0=
EXTT1=
EXTT2=
EXTT3=
EXTT4=
EXTT5=
EXTT6=
EXTT7=
EXTT8=
EXTT9=
EXTT10=
EXTT11=
EXTT12=
EXTT13=
EXTT14=
EXTT15=
EXTT16=
EXTT17=
EXTT18=
EXTT19=
PLAYORDER=
